<mxfile host="app.diagrams.net" modified="2021-07-11T10:32:57.161Z" agent="5.0 (Macintosh; Intel Mac OS X 10_15_6) AppleWebKit/537.36 (KHTML, like Gecko) Chrome/88.0.4324.192 Safari/537.36" etag="_oXCYmKvC7KASV1MFbfg" version="14.8.5" type="github">
  <diagram id="z6-L7Pg2wocLRjvj_UEV" name="第 1 页">
    <mxGraphModel dx="1186" dy="741" grid="1" gridSize="10" guides="1" tooltips="1" connect="1" arrows="1" fold="1" page="1" pageScale="1" pageWidth="827" pageHeight="1169" background="#F4F1DE" math="0" shadow="0">
      <root>
        <mxCell id="0" />
        <mxCell id="1" parent="0" />
        <mxCell id="YF7DW7q0cS7cFbDqWeW3-3" value="&lt;h2&gt;INITIALIZED&lt;/h2&gt;" style="shape=umlLifeline;perimeter=lifelinePerimeter;whiteSpace=wrap;html=1;container=1;collapsible=0;recursiveResize=0;outlineConnect=0;rounded=0;sketch=0;fontColor=#393C56;strokeColor=#E07A5F;fillColor=#EF9a9a;fontFamily=Comic Sans MS;" vertex="1" parent="1">
          <mxGeometry x="280" y="100" width="160" height="340" as="geometry" />
        </mxCell>
        <mxCell id="YF7DW7q0cS7cFbDqWeW3-15" value="&lt;h3&gt;ON_CREATE&lt;/h3&gt;" style="text;html=1;strokeColor=none;fillColor=none;align=center;verticalAlign=middle;whiteSpace=wrap;rounded=0;sketch=0;fontFamily=Comic Sans MS;fontColor=#393C56;" vertex="1" parent="YF7DW7q0cS7cFbDqWeW3-3">
          <mxGeometry x="120" y="60" width="120" height="30" as="geometry" />
        </mxCell>
        <mxCell id="YF7DW7q0cS7cFbDqWeW3-4" value="&lt;h2&gt;DESTROYED&lt;/h2&gt;" style="shape=umlLifeline;perimeter=lifelinePerimeter;whiteSpace=wrap;html=1;container=1;collapsible=0;recursiveResize=0;outlineConnect=0;rounded=0;sketch=0;fontColor=#393C56;strokeColor=#E07A5F;fillColor=#EF9a9a;fontFamily=Comic Sans MS;" vertex="1" parent="1">
          <mxGeometry x="80" y="100" width="160" height="340" as="geometry" />
        </mxCell>
        <mxCell id="YF7DW7q0cS7cFbDqWeW3-6" value="&lt;h2&gt;CREATED&lt;/h2&gt;" style="shape=umlLifeline;perimeter=lifelinePerimeter;whiteSpace=wrap;html=1;container=1;collapsible=0;recursiveResize=0;outlineConnect=0;rounded=0;sketch=0;fontColor=#393C56;strokeColor=#E07A5F;fillColor=#EF9a9a;fontFamily=Comic Sans MS;" vertex="1" parent="1">
          <mxGeometry x="480" y="100" width="160" height="340" as="geometry" />
        </mxCell>
        <mxCell id="YF7DW7q0cS7cFbDqWeW3-7" value="&lt;h2&gt;STARTED&lt;/h2&gt;" style="shape=umlLifeline;perimeter=lifelinePerimeter;whiteSpace=wrap;html=1;container=1;collapsible=0;recursiveResize=0;outlineConnect=0;rounded=0;sketch=0;fontColor=#393C56;strokeColor=#E07A5F;fillColor=#EF9a9a;fontFamily=Comic Sans MS;" vertex="1" parent="1">
          <mxGeometry x="680" y="100" width="160" height="340" as="geometry" />
        </mxCell>
        <mxCell id="YF7DW7q0cS7cFbDqWeW3-8" value="&lt;h2&gt;RESUMED&lt;/h2&gt;" style="shape=umlLifeline;perimeter=lifelinePerimeter;whiteSpace=wrap;html=1;container=1;collapsible=0;recursiveResize=0;outlineConnect=0;rounded=0;sketch=0;fontColor=#393C56;strokeColor=#E07A5F;fillColor=#EF9a9a;fontFamily=Comic Sans MS;" vertex="1" parent="1">
          <mxGeometry x="880" y="100" width="160" height="340" as="geometry" />
        </mxCell>
        <mxCell id="YF7DW7q0cS7cFbDqWeW3-13" value="" style="endArrow=classic;html=1;fontColor=#393C56;strokeColor=#E07A5F;fillColor=#F2CC8F;" edge="1" parent="1" source="YF7DW7q0cS7cFbDqWeW3-3" target="YF7DW7q0cS7cFbDqWeW3-6">
          <mxGeometry width="50" height="50" relative="1" as="geometry">
            <mxPoint x="290" y="340" as="sourcePoint" />
            <mxPoint x="340" y="290" as="targetPoint" />
            <Array as="points">
              <mxPoint x="420" y="200" />
            </Array>
          </mxGeometry>
        </mxCell>
        <mxCell id="YF7DW7q0cS7cFbDqWeW3-19" value="" style="endArrow=classic;html=1;fontColor=#393C56;strokeColor=#E07A5F;fillColor=#F2CC8F;" edge="1" parent="1" source="YF7DW7q0cS7cFbDqWeW3-6" target="YF7DW7q0cS7cFbDqWeW3-7">
          <mxGeometry width="50" height="50" relative="1" as="geometry">
            <mxPoint x="490" y="200" as="sourcePoint" />
            <mxPoint x="540" y="150" as="targetPoint" />
            <Array as="points">
              <mxPoint x="590" y="240" />
            </Array>
          </mxGeometry>
        </mxCell>
        <mxCell id="YF7DW7q0cS7cFbDqWeW3-22" value="" style="endArrow=classic;html=1;fontColor=#393C56;strokeColor=#E07A5F;fillColor=#F2CC8F;" edge="1" parent="1" source="YF7DW7q0cS7cFbDqWeW3-7" target="YF7DW7q0cS7cFbDqWeW3-8">
          <mxGeometry width="50" height="50" relative="1" as="geometry">
            <mxPoint x="580" y="210" as="sourcePoint" />
            <mxPoint x="630" y="160" as="targetPoint" />
            <Array as="points">
              <mxPoint x="850" y="280" />
            </Array>
          </mxGeometry>
        </mxCell>
        <mxCell id="YF7DW7q0cS7cFbDqWeW3-23" value="&lt;h3&gt;ON_RESUME&lt;/h3&gt;" style="text;html=1;strokeColor=none;fillColor=none;align=center;verticalAlign=middle;whiteSpace=wrap;rounded=0;sketch=0;fontFamily=Comic Sans MS;fontColor=#393C56;" vertex="1" parent="1">
          <mxGeometry x="800" y="240" width="120" height="30" as="geometry" />
        </mxCell>
        <mxCell id="YF7DW7q0cS7cFbDqWeW3-24" value="" style="endArrow=classic;html=1;fontColor=#393C56;strokeColor=#E07A5F;fillColor=#F2CC8F;dashed=1;" edge="1" parent="1" source="YF7DW7q0cS7cFbDqWeW3-8" target="YF7DW7q0cS7cFbDqWeW3-7">
          <mxGeometry width="50" height="50" relative="1" as="geometry">
            <mxPoint x="580" y="390" as="sourcePoint" />
            <mxPoint x="630" y="340" as="targetPoint" />
            <Array as="points">
              <mxPoint x="860" y="320" />
            </Array>
          </mxGeometry>
        </mxCell>
        <mxCell id="YF7DW7q0cS7cFbDqWeW3-26" value="&lt;h3&gt;ON_PAUSE&lt;/h3&gt;" style="text;html=1;strokeColor=none;fillColor=none;align=center;verticalAlign=middle;whiteSpace=wrap;rounded=0;sketch=0;fontFamily=Comic Sans MS;fontColor=#393C56;" vertex="1" parent="1">
          <mxGeometry x="800" y="340" width="120" height="30" as="geometry" />
        </mxCell>
        <mxCell id="YF7DW7q0cS7cFbDqWeW3-29" value="" style="endArrow=classic;html=1;fontColor=#393C56;strokeColor=#E07A5F;fillColor=#F2CC8F;dashed=1;" edge="1" parent="1" source="YF7DW7q0cS7cFbDqWeW3-7" target="YF7DW7q0cS7cFbDqWeW3-6">
          <mxGeometry width="50" height="50" relative="1" as="geometry">
            <mxPoint x="730" y="530" as="sourcePoint" />
            <mxPoint x="530" y="530" as="targetPoint" />
            <Array as="points">
              <mxPoint x="660" y="360" />
            </Array>
          </mxGeometry>
        </mxCell>
        <mxCell id="YF7DW7q0cS7cFbDqWeW3-30" value="&lt;h3&gt;ON_STOP&lt;/h3&gt;" style="text;html=1;strokeColor=none;fillColor=none;align=center;verticalAlign=middle;whiteSpace=wrap;rounded=0;sketch=0;fontFamily=Comic Sans MS;fontColor=#393C56;" vertex="1" parent="1">
          <mxGeometry x="600" y="380" width="120" height="30" as="geometry" />
        </mxCell>
        <mxCell id="YF7DW7q0cS7cFbDqWeW3-21" value="&lt;h3&gt;ON_START&lt;/h3&gt;" style="text;html=1;strokeColor=none;fillColor=none;align=center;verticalAlign=middle;whiteSpace=wrap;rounded=0;sketch=0;fontFamily=Comic Sans MS;fontColor=#393C56;" vertex="1" parent="1">
          <mxGeometry x="600" y="200" width="120" height="30" as="geometry" />
        </mxCell>
        <mxCell id="YF7DW7q0cS7cFbDqWeW3-34" value="" style="endArrow=classic;html=1;fontColor=#393C56;strokeColor=#E07A5F;fillColor=#F2CC8F;dashed=1;" edge="1" parent="1" source="YF7DW7q0cS7cFbDqWeW3-6" target="YF7DW7q0cS7cFbDqWeW3-4">
          <mxGeometry width="50" height="50" relative="1" as="geometry">
            <mxPoint x="590" y="535" as="sourcePoint" />
            <mxPoint x="390" y="535" as="targetPoint" />
            <Array as="points">
              <mxPoint x="490" y="400" />
            </Array>
          </mxGeometry>
        </mxCell>
        <mxCell id="YF7DW7q0cS7cFbDqWeW3-35" value="&lt;h3&gt;ON_DESTROY&lt;/h3&gt;" style="text;html=1;strokeColor=none;fillColor=none;align=center;verticalAlign=middle;whiteSpace=wrap;rounded=0;sketch=0;fontFamily=Comic Sans MS;fontColor=#393C56;" vertex="1" parent="1">
          <mxGeometry x="295" y="420" width="130" height="30" as="geometry" />
        </mxCell>
        <mxCell id="YF7DW7q0cS7cFbDqWeW3-36" value="&lt;h2&gt;State&lt;/h2&gt;" style="text;html=1;strokeColor=none;fillColor=none;align=center;verticalAlign=middle;whiteSpace=wrap;rounded=0;sketch=0;fontFamily=Comic Sans MS;fontColor=#393C56;" vertex="1" parent="1">
          <mxGeometry x="20" y="110" width="40" height="20" as="geometry" />
        </mxCell>
        <mxCell id="YF7DW7q0cS7cFbDqWeW3-37" value="&lt;h2&gt;Event&lt;/h2&gt;" style="text;html=1;strokeColor=none;fillColor=none;align=center;verticalAlign=middle;whiteSpace=wrap;rounded=0;sketch=0;fontFamily=Comic Sans MS;fontColor=#393C56;" vertex="1" parent="1">
          <mxGeometry x="20" y="180" width="40" height="20" as="geometry" />
        </mxCell>
      </root>
    </mxGraphModel>
  </diagram>
</mxfile>
